<svg width="219" height="32" viewBox="0 0 219 32" fill="none" xmlns="http://www.w3.org/2000/svg">
<path d="M27.6086 0C27.1961 0.732439 26.8257 1.49013 26.4889 2.26467C23.2898 1.78479 20.0317 1.78479 16.8241 2.26467C16.4958 1.49013 16.1169 0.732439 15.7044 0C12.6989 0.513549 9.76911 1.41436 6.9909 2.68561C1.48498 10.8435 -0.00515735 18.7908 0.7357 26.6288C3.96011 29.0113 7.5718 30.8298 11.4192 31.9916C12.2863 30.8298 13.0525 29.5922 13.7091 28.3041C12.4631 27.8411 11.2592 27.2602 10.1059 26.5867C10.4089 26.3678 10.7036 26.1405 10.9898 25.9216C17.7502 29.1039 25.5797 29.1039 32.3484 25.9216C32.6347 26.1573 32.9293 26.3846 33.2324 26.5867C32.079 27.2686 30.8751 27.8411 29.6207 28.3126C30.2774 29.6006 31.0435 30.8382 31.9107 32C35.7581 30.8382 39.3697 29.0282 42.5942 26.6456C43.4697 17.5533 41.0956 9.67324 36.3221 2.69403C33.5523 1.42278 30.6226 0.521968 27.617 0.0168377L27.6086 0ZM14.652 21.8048C12.5726 21.8048 10.8467 19.919 10.8467 17.587C10.8467 15.2549 12.5052 13.3607 14.6436 13.3607C16.782 13.3607 18.4826 15.2634 18.4489 17.587C18.4153 19.9106 16.7736 21.8048 14.652 21.8048ZM28.6778 21.8048C26.59 21.8048 24.8809 19.919 24.8809 17.587C24.8809 15.2549 26.5394 13.3607 28.6778 13.3607C30.8162 13.3607 32.5084 15.2634 32.4747 17.587C32.441 19.9106 30.7994 21.8048 28.6778 21.8048ZM83.4195 5.84267C81.3232 4.89976 78.7639 4.42831 75.7331 4.42831H63.1722V26.9824H74.8323C78.1156 26.9824 80.8686 26.4772 83.0911 25.467C85.1201 24.6251 86.8459 23.1939 88.0583 21.3586C89.1443 19.6243 89.7083 17.6122 89.6831 15.5664C89.7168 13.5291 89.178 11.5254 88.1172 9.78269C86.9891 8.02315 85.3474 6.64246 83.4195 5.83425V5.84267ZM79.4121 19.7169C78.3177 20.7356 76.7518 21.2491 74.706 21.2491H71.229V10.17H75.1606C77.1306 10.17 78.6123 10.6667 79.5973 11.6348C80.5992 12.6788 81.1295 14.0931 81.0622 15.5496C81.138 17.1155 80.5402 18.6309 79.4205 19.7253L79.4121 19.7169ZM122.155 17.2249C123.182 18.1426 123.695 19.4896 123.704 21.266C123.737 23.1602 122.761 24.9366 121.136 25.9216C119.444 27.0581 117.019 27.6306 113.87 27.6222C112.06 27.6222 110.259 27.3949 108.508 26.9487C106.849 26.5362 105.266 25.8711 103.801 24.9871V19.6411C105.081 20.5672 106.512 21.2491 108.036 21.6532C109.703 22.1584 111.437 22.4278 113.18 22.4362C113.778 22.4699 114.384 22.3604 114.94 22.1331C115.335 21.9311 115.529 21.6701 115.529 21.4091C115.537 21.106 115.419 20.8198 115.209 20.6009C114.839 20.3231 114.409 20.1294 113.955 20.0537L110.09 19.1865C107.876 18.673 106.302 17.9574 105.376 17.0481C104.433 16.0968 103.928 14.7919 103.995 13.4533C103.978 12.2578 104.416 11.096 105.216 10.2036C106.167 9.19337 107.371 8.46093 108.693 8.06525C110.402 7.52644 112.187 7.27388 113.98 7.30755C115.655 7.29071 117.322 7.48435 118.939 7.88845C120.252 8.19995 121.506 8.69666 122.677 9.37017V14.4299C121.582 13.7985 120.403 13.3102 119.183 12.9987C117.853 12.6451 116.48 12.4599 115.108 12.4599C113.087 12.4599 112.077 12.8051 112.077 13.487C112.077 13.7985 112.254 14.0847 112.54 14.211C113.096 14.4467 113.668 14.6151 114.258 14.7077L117.482 15.2886C119.57 15.659 121.136 16.2989 122.163 17.2249H122.155ZM143.538 20.9461C144.481 20.6767 145.382 20.2894 146.224 19.8011V25.5091C143.732 26.9571 140.886 27.698 138.007 27.639C135.7 27.698 133.402 27.2349 131.306 26.2752C129.58 25.4838 128.132 24.2042 127.13 22.5962C126.196 21.0134 125.716 19.2118 125.749 17.3765C125.724 15.5412 126.229 13.7395 127.197 12.1905C128.233 10.6077 129.715 9.36175 131.449 8.60405C133.562 7.6864 135.844 7.2402 138.15 7.29913C141.375 7.29913 144.044 7.97264 146.173 9.32807V15.2297C145.365 14.6825 144.481 14.2615 143.547 13.9753C142.503 13.6469 141.417 13.487 140.322 13.4954C138.327 13.4954 136.761 13.8574 135.633 14.5898C134.05 15.4738 133.478 17.4775 134.362 19.0687C134.648 19.5822 135.077 20.0116 135.583 20.3147C136.677 21.0555 138.268 21.4259 140.348 21.4259C141.425 21.4259 142.494 21.2744 143.522 20.9629L143.538 20.9461ZM167.389 8.59563C163.154 6.87819 158.414 6.87819 154.18 8.59563C152.454 9.35333 150.989 10.5909 149.945 12.1568C148.96 13.7059 148.447 15.4991 148.48 17.3344C148.455 19.1865 148.969 21.0134 149.945 22.5877C150.981 24.1957 152.462 25.4754 154.205 26.2668C158.414 28.06 163.171 28.06 167.381 26.2584C169.115 25.467 170.588 24.1873 171.615 22.5793C172.583 20.9966 173.089 19.1781 173.063 17.326C173.097 15.4907 172.592 13.689 171.615 12.14C170.58 10.5825 169.115 9.34491 167.397 8.59563H167.389ZM163.988 20.5504C163.121 21.367 161.959 21.7964 160.763 21.7206C159.576 21.7795 158.414 21.3586 157.539 20.5504C156.739 19.7169 156.31 18.5972 156.369 17.4354C156.31 16.2905 156.739 15.1792 157.539 14.3625C158.414 13.5627 159.576 13.1586 160.763 13.2176C161.95 13.1502 163.112 13.5627 163.988 14.3625C164.796 15.1792 165.225 16.2905 165.166 17.4354C165.217 18.5888 164.796 19.7169 163.988 20.5504ZM189.488 7.70324C190.516 7.67798 191.534 7.93896 192.418 8.47777V15.4486C191.458 14.8761 190.347 14.5983 189.227 14.6404C187.51 14.6404 186.188 15.1623 185.262 16.2063C184.344 17.2502 183.881 18.8666 183.881 21.0555V26.9824H175.985V8.1326H183.713V14.1184C184.142 11.9295 184.833 10.3131 185.793 9.26914C186.735 8.23362 188.074 7.66114 189.472 7.70324H189.488ZM210.754 3.78006V12.1821C209.466 8.91555 206.941 7.28229 203.186 7.28229C201.468 7.25704 199.776 7.71166 198.303 8.60405C196.872 9.49645 195.718 10.7677 194.986 12.2831C194.186 13.9416 193.79 15.7601 193.849 17.5954C193.816 19.3717 194.186 21.1229 194.927 22.7393C195.6 24.1957 196.678 25.4417 198.025 26.3173C199.423 27.2013 201.047 27.6559 202.698 27.6222C204.457 27.6727 206.191 27.2434 207.715 26.3678C209.096 25.5175 210.165 24.2463 210.763 22.7393V26.974H218.66V3.78006H210.763H210.754ZM209.593 20.4409C208.717 21.2491 207.555 21.6617 206.368 21.5943C205.206 21.6532 204.07 21.2323 203.211 20.4409C202.403 19.658 201.965 18.5635 202.007 17.4354C201.965 16.3157 202.394 15.2381 203.203 14.4551C205.063 12.9398 207.732 12.9398 209.593 14.4551C210.401 15.2128 210.839 16.282 210.805 17.3933C210.847 18.5299 210.409 19.6411 209.593 20.4409ZM100.274 6.60879C100.274 8.56196 98.5145 10.1447 96.3424 10.1447C94.1703 10.1447 92.4108 8.56196 92.4108 6.60879C92.4108 4.65562 94.1703 3.07288 96.3424 3.07288C98.5145 3.07288 100.274 4.65562 100.274 6.60879ZM100.274 12.5777V27.0834H92.4024V12.5777C94.9196 13.6385 97.7567 13.6385 100.274 12.5777Z" fill="#5865F2"/>
</svg>
